<svg xmlns="http://www.w3.org/2000/svg" width="124" height="124" fill="none" viewBox="0 0 124 124">
    <path fill="#000" fill-rule="evenodd" d="M83.628 37.488c-.611-11.25-10.064-20.186-21.635-20.186-11.493 0-20.896 8.817-21.621 19.96a28.941 28.941 0 0 1 8.107-3.795c2.105-5.327 7.362-9.102 13.514-9.102 6.193 0 11.48 3.826 13.556 9.209a28.947 28.947 0 0 1 8.079 3.914z" clip-rule="evenodd"/>
    <path stroke="#000" stroke-width="7.884" d="M67.98 99.392a11.886 11.886 0 0 1-11.96 0L38.134 88.98c-1.497-.872-2.452-2.514-2.452-4.327V61.654c0-12.28 9.781-22.127 21.714-22.127h9.208c11.933 0 21.714 9.847 21.714 22.127v22.998c0 1.813-.955 3.455-2.453 4.327L67.98 99.392z"/>
    <path stroke="#000" stroke-width="2.957" d="M69.596 69.387H51.812a4.952 4.952 0 0 0-4.951 4.952v20.196"/>
    <path fill="#000" fill-rule="evenodd" d="M70.906 74.728a5.342 5.342 0 0 0 5.343-5.34c0-2.95-2.392-5.34-5.343-5.34a5.342 5.342 0 0 0-5.344 5.34c0 2.949 2.393 5.34 5.344 5.34zM52.204 61.377a5.342 5.342 0 0 0 5.343-5.34c0-2.95-2.392-5.34-5.343-5.34a5.342 5.342 0 0 0-5.343 5.34c0 2.95 2.392 5.34 5.343 5.34z" clip-rule="evenodd"/>
    <path fill="#000" fill-rule="evenodd" d="M60.219 87.188a5.342 5.342 0 0 0 5.343-5.34c0-2.95-2.392-5.34-5.343-5.34a5.342 5.342 0 0 0-5.343 5.34c0 2.95 2.392 5.34 5.343 5.34z" clip-rule="evenodd"/>
    <path stroke="#000" stroke-width="2.957" d="M88.198 82.293H62.445"/>
    <path stroke="#000" stroke-width="2.957" d="M76.478 43.576v7.509a4.952 4.952 0 0 1-4.952 4.952H53.985"/>
</svg>
