<svg width="62" height="73" viewBox="0 0 62 73" fill="none" xmlns="http://www.w3.org/2000/svg">
<path d="M36.9503 64.2088C33.2724 66.3501 28.7276 66.3501 25.0497 64.2088L7.25161 53.8464C5.76177 52.979 4.8116 51.3446 4.8116 49.541V26.6558C4.8116 14.4359 14.5444 4.63769 26.4183 4.63769H35.5817C47.4556 4.63769 57.1884 14.4359 57.1884 26.6558V49.541C57.1884 51.3446 56.2382 52.979 54.7484 53.8464L36.9503 64.2088Z" stroke="#0B8EC7" stroke-width="7.88406"/>
<path d="M38.5587 34.3511H20.8623C18.1409 34.3511 15.9348 36.5572 15.9348 39.2786V59.3752" stroke="#0B8EC7" stroke-width="2.95652"/>
<path d="M57.0693 47.1932H31.4431" stroke="#0B8EC7" stroke-width="2.95652"/>
<path d="M45.4067 8.66667V16.1385C45.4067 18.8599 43.2005 21.066 40.4791 21.066H23.0243" stroke="#088FC8" stroke-width="2.95652"/>
<path fill-rule="evenodd" clip-rule="evenodd" d="M39.8619 39.6651C42.7985 39.6651 45.179 37.2859 45.179 34.3511C45.179 31.4162 42.7985 29.037 39.8619 29.037C36.9253 29.037 34.5448 31.4162 34.5448 34.3511C34.5448 37.2859 36.9253 39.6651 39.8619 39.6651Z" fill="#0B8EC7"/>
<path fill-rule="evenodd" clip-rule="evenodd" d="M21.2519 26.38C24.1885 26.38 26.5691 24.0009 26.5691 21.066C26.5691 18.1312 24.1885 15.752 21.2519 15.752C18.3154 15.752 15.9348 18.1312 15.9348 21.066C15.9348 24.0009 18.3154 26.38 21.2519 26.38Z" fill="#0B8EC7"/>
<path fill-rule="evenodd" clip-rule="evenodd" d="M29.2276 52.0644C32.1642 52.0644 34.5448 49.6853 34.5448 46.7504C34.5448 43.8156 32.1642 41.4364 29.2276 41.4364C26.2911 41.4364 23.9105 43.8156 23.9105 46.7504C23.9105 49.6853 26.2911 52.0644 29.2276 52.0644Z" fill="#0B8EC8"/>

</svg>
