<svg width="338" height="85" viewBox="0 0 338 85" fill="none" xmlns="http://www.w3.org/2000/svg">
<g clip-path="url(#clip0)">
<rect width="60.8631" height="60.8631" rx="10.9059" transform="matrix(0.866044 -0.499967 0.866044 0.499967 0.275391 54.3564)" fill="#4F4DAA"/>
<rect width="60.8631" height="60.8631" rx="10.9059" transform="matrix(0.866044 -0.499967 0.866044 0.499967 0.275391 30.6177)" fill="#706CFF"/>
</g>
<path d="M155.824 8.61865C160.136 8.61865 164.056 9.65462 167.584 11.7266C171.168 13.7425 173.968 16.5424 175.984 20.1264C177.999 23.6543 179.007 27.6022 179.007 31.9701C179.007 36.3379 178.055 40.3138 176.151 43.8977C174.304 47.4257 171.728 50.1976 168.424 52.2135C165.176 54.2295 161.536 55.2375 157.504 55.2375C154.256 55.2375 151.232 54.5655 148.432 53.2215C145.632 51.8775 143.252 50.0016 141.292 47.5937V70.2731C141.292 71.561 140.9 72.597 140.116 73.381C139.332 74.165 138.296 74.557 137.008 74.557C135.777 74.557 134.741 74.165 133.901 73.381C133.117 72.597 132.725 71.561 132.725 70.2731V31.9701C132.725 27.6022 133.733 23.6543 135.749 20.1264C137.82 16.5424 140.592 13.7425 144.064 11.7266C147.592 9.65462 151.512 8.61865 155.824 8.61865ZM155.824 47.6777C158.624 47.6777 161.144 47.0057 163.384 45.6617C165.68 44.2617 167.472 42.3858 168.76 40.0338C170.104 37.6259 170.776 34.938 170.776 31.9701C170.776 29.0021 170.104 26.3142 168.76 23.9063C167.472 21.4983 165.68 19.6224 163.384 18.2784C161.144 16.8784 158.624 16.1785 155.824 16.1785C153.024 16.1785 150.476 16.8784 148.18 18.2784C145.94 19.6224 144.176 21.4983 142.888 23.9063C141.6 26.3142 140.956 29.0021 140.956 31.9701C140.956 34.938 141.6 37.6259 142.888 40.0338C144.176 42.3858 145.94 44.2617 148.18 45.6617C150.476 47.0057 153.024 47.6777 155.824 47.6777Z" fill="white"/>
<path d="M228.944 31.2141C228.944 32.278 228.58 33.174 227.853 33.902C227.125 34.574 226.201 34.91 225.081 34.91H193.161C193.777 38.8299 195.541 41.9938 198.453 44.4017C201.421 46.8097 205.033 48.0136 209.289 48.0136C210.969 48.0136 212.705 47.7056 214.497 47.0897C216.345 46.4737 217.857 45.7177 219.033 44.8217C219.817 44.2057 220.741 43.8977 221.805 43.8977C222.869 43.8977 223.709 44.1777 224.325 44.7377C225.333 45.5777 225.837 46.5297 225.837 47.5937C225.837 48.6016 225.389 49.4416 224.493 50.1136C222.589 51.6255 220.209 52.8575 217.353 53.8095C214.553 54.7615 211.865 55.2375 209.289 55.2375C204.697 55.2375 200.581 54.2575 196.941 52.2975C193.301 50.2816 190.445 47.5096 188.374 43.9817C186.358 40.4538 185.35 36.4499 185.35 31.9701C185.35 27.4902 186.302 23.4863 188.206 19.9584C190.165 16.3745 192.853 13.6025 196.269 11.6426C199.741 9.62663 203.661 8.61865 208.029 8.61865C212.341 8.61865 216.065 9.57063 219.201 11.4746C222.337 13.3785 224.745 16.0385 226.425 19.4544C228.105 22.8703 228.944 26.7902 228.944 31.2141ZM208.029 15.8425C203.941 15.8425 200.609 16.9624 198.033 19.2024C195.513 21.4423 193.917 24.4382 193.245 28.1901H221.217C220.713 24.4382 219.313 21.4423 217.017 19.2024C214.721 16.9624 211.725 15.8425 208.029 15.8425Z" fill="white"/>
<path d="M235.927 32.6419C235.927 31.5779 236.291 30.6819 237.019 29.954C237.747 29.282 238.671 28.946 239.791 28.946H271.71C271.094 25.0261 269.33 21.8622 266.418 19.4542C263.45 17.0463 259.838 15.8423 255.582 15.8423C253.902 15.8423 252.166 16.1503 250.374 16.7663C248.526 17.3823 247.014 18.1383 245.838 19.0342C245.054 19.6502 244.13 19.9582 243.066 19.9582C242.002 19.9582 241.162 19.6782 240.546 19.1182C239.539 18.2783 239.035 17.3263 239.035 16.2623C239.035 15.2543 239.483 14.4144 240.378 13.7424C242.282 12.2304 244.662 10.9984 247.518 10.0465C250.318 9.09449 253.006 8.6185 255.582 8.6185C260.174 8.6185 264.29 9.59848 267.93 11.5584C271.57 13.5744 274.426 16.3463 276.498 19.8742C278.514 23.4021 279.521 27.406 279.521 31.8859C279.521 36.3658 278.57 40.3697 276.666 43.8976C274.706 47.4815 272.018 50.2534 268.602 52.2134C265.13 54.2293 261.21 55.2373 256.842 55.2373C252.53 55.2373 248.806 54.2853 245.67 52.3814C242.534 50.4774 240.126 47.8175 238.447 44.4016C236.767 40.9857 235.927 37.0658 235.927 32.6419ZM256.842 48.0135C260.93 48.0135 264.262 46.8935 266.838 44.6536C269.358 42.4136 270.954 39.4177 271.626 35.6658H243.654C244.158 39.4177 245.558 42.4136 247.854 44.6536C250.15 46.8935 253.146 48.0135 256.842 48.0135Z" fill="white"/>
<path d="M308.244 8.61865C312.556 8.61865 316.448 9.65462 319.92 11.7266C323.448 13.7425 326.219 16.5424 328.235 20.1264C330.307 23.6543 331.343 27.6022 331.343 31.9701V70.2731C331.343 71.561 330.951 72.597 330.167 73.381C329.383 74.165 328.347 74.557 327.059 74.557C325.828 74.557 324.792 74.165 323.952 73.381C323.168 72.597 322.776 71.561 322.776 70.2731V47.5937C320.816 50.0016 318.436 51.8775 315.636 53.2215C312.836 54.5655 309.812 55.2375 306.564 55.2375C302.532 55.2375 298.864 54.2295 295.56 52.2135C292.312 50.1976 289.736 47.4257 287.832 43.8977C285.985 40.3138 285.061 36.3379 285.061 31.9701C285.061 27.6022 286.069 23.6543 288.084 20.1264C290.1 16.5424 292.872 13.7425 296.4 11.7266C299.984 9.65462 303.932 8.61865 308.244 8.61865ZM308.244 47.6777C311.044 47.6777 313.564 47.0057 315.804 45.6617C318.1 44.2617 319.892 42.3858 321.18 40.0338C322.468 37.6259 323.112 34.938 323.112 31.9701C323.112 29.0021 322.468 26.3142 321.18 23.9063C319.892 21.4983 318.1 19.6224 315.804 18.2784C313.564 16.8784 311.044 16.1785 308.244 16.1785C305.444 16.1785 302.896 16.8784 300.6 18.2784C298.36 19.6224 296.568 21.4983 295.224 23.9063C293.936 26.3142 293.292 29.0021 293.292 31.9701C293.292 34.938 293.936 37.6259 295.224 40.0338C296.568 42.3858 298.36 44.2617 300.6 45.6617C302.896 47.0057 305.444 47.6777 308.244 47.6777Z" fill="white"/>
<defs>
<clipPath id="clip0">
<rect x="0.275391" y="0.188477" width="105.42" height="84.5979" fill="white"/>
</clipPath>
</defs>
</svg>
